<svg width="820.42" height="555.49" xmlns="http://www.w3.org/2000/svg">
 <g class="layer">
  <title>Layer 1</title>
  <path stroke="#000000" stroke-width="10" id="svg_1" fill="#f9f963" d="m544.91042,1.86846c36.02,0 71.68,7.15 104.95,21.04s63.51,34.25 88.97,59.93c25.47,25.67 45.66,56.14 59.45,89.69a275.73,277.17 0 0 1 20.88,105.8c0,111.82 -66.82,212.62 -169.3,255.41s-220.44,19.14 -298.87,-59.93c-78.43,-79.07 -101.9,-197.97 -59.45,-301.28c42.45,-103.31 142.45,-170.66 253.38,-170.66l-0.01,0zm0,359.39c10.81,0.01 21.51,-2.12 31.5,-6.28s19.06,-10.27 26.71,-17.98s13.7,-16.85 17.84,-26.92a82.7,83.13 0 0 0 6.24,-31.76c0,-33.55 -20.05,-63.79 -50.79,-76.63s-66.13,-5.74 -89.66,17.98s-30.57,59.39 -17.84,90.39s42.74,51.2 76.01,51.2l-0.01,0z"/>
  <path stroke-width="10" stroke="#000000" id="svg_2" fill="#8abce2" d="m237.52,209.36c-68.44,20.18 -149.22,0 -149.22,0c23.44,104.87 97.79,170.55 205,178.54c23.11,55.22 28.23,52.16 43.57,73.46c7.66,9.91 24.79,26.43 47.66,43.19c21.83,14.71 53.57,30.55 78.6,38.22s51.02,11.56 77.15,11.55l-80.81,-263.14c-83.07,-270.47 -125.65,-288.79 -322.65,-288.79l-135.26,0c22.62,102.11 100.61,180.11 235.96,206.97c0,0 0.01,0 0.01,0l-0.01,0z"/>
  <path id="svg_3" d="m590.23153,349.255c-45.58011,0 -82.5,-37.14365 -82.5,-83c0,-45.85635 36.91989,-83 82.5,-83c45.58011,0 82.5,37.14365 82.5,83c0,45.85635 -36.91989,83 -82.5,83z" opacity="undefined" stroke-width="10" stroke="#000000" fill="#f9f963"/>
  <ellipse ry="100.94534" rx="101.64238" id="svg_11" cy="251.17264" cx="628.03612" stroke-width="0" stroke="#000000" fill="#f9f963"/>
  <path id="svg_13" d="m546.95185,168.44585l22.98895,0l0,24.44855l-22.98895,0l0,-24.44855z" opacity="undefined" stroke-width="0" stroke="#000000" fill="#f9f963"/>
  <rect transform="rotate(52, 607.603, 354.228)" id="svg_16" height="33.60074" width="21.68012" y="337.42808" x="596.76319" stroke-width="0" stroke="#000000" fill="#f9f963"/>
 </g>

</svg>